<svg width="2952" height="2382" viewBox="0 0 2952 2382" fill="none" xmlns="http://www.w3.org/2000/svg">
<path d="M916.2 1493C886.8 1493 857.167 1489.97 827.3 1483.9C797.433 1477.37 772 1469.2 751 1459.4L760.8 1427.9C774.8 1434.43 790.433 1440.27 807.7 1445.4C825.433 1450.07 843.633 1453.8 862.3 1456.6C881.433 1459.4 899.867 1460.8 917.6 1460.8C963.8 1460.8 999.5 1451.47 1024.7 1432.8C1049.9 1414.13 1062.5 1388 1062.5 1354.4C1062.5 1335.27 1058.53 1319.4 1050.6 1306.8C1042.67 1294.2 1031.7 1283.7 1017.7 1275.3C1004.17 1266.9 988.3 1259.9 970.1 1254.3C952.367 1248.23 933.233 1242.4 912.7 1236.8C892.167 1231.2 872.1 1225.13 852.5 1218.6C833.367 1211.6 816.333 1202.97 801.4 1192.7C786.467 1182.43 774.567 1169.6 765.7 1154.2C756.833 1138.8 752.4 1119.9 752.4 1097.5C752.4 1056.43 768.033 1024.7 799.3 1002.3C830.567 979.433 873.733 968 928.8 968C957.267 968 985.733 971.033 1014.2 977.1C1043.13 982.7 1067.4 990.167 1087 999.5L1075.8 1031C1057.6 1021.67 1034.97 1014.2 1007.9 1008.6C981.3 1003 954.933 1000.2 928.8 1000.2C884 1000.2 849.467 1008.83 825.2 1026.1C800.933 1042.9 788.8 1066.7 788.8 1097.5C788.8 1115.23 792.3 1130.17 799.3 1142.3C806.767 1153.97 817.033 1163.77 830.1 1171.7C843.167 1179.63 858.333 1186.4 875.6 1192C892.867 1197.6 911.3 1202.97 930.9 1208.1C952.833 1214.17 973.6 1220.93 993.2 1228.4C1013.27 1235.4 1031.23 1244.27 1047.1 1255C1062.97 1265.27 1075.33 1278.57 1084.2 1294.9C1093.53 1310.77 1098.2 1330.6 1098.2 1354.4C1098.2 1398.27 1082.1 1432.33 1049.9 1456.6C1018.17 1480.87 973.6 1493 916.2 1493ZM1478.9 1493C1415.43 1493 1367.13 1477.83 1334 1447.5C1301.33 1417.17 1285 1373.3 1285 1315.9V975H1319.3V1311C1319.3 1361.4 1332.37 1398.97 1358.5 1423.7C1385.1 1448.43 1425 1460.8 1478.2 1460.8C1531.4 1460.8 1571.07 1448.43 1597.2 1423.7C1623.8 1398.97 1637.1 1361.4 1637.1 1311V975H1672.1V1315.9C1672.1 1373.3 1655.53 1417.17 1622.4 1447.5C1589.73 1477.83 1541.9 1493 1478.9 1493ZM1885.11 1486V975H1932.01L2121.01 1339H2122.41L2311.41 975H2358.31V1486H2324.01V1025.4H2322.61L2139.21 1377.5H2104.21L1920.81 1025.4H1919.41V1486H1885.11ZM2720.83 1493C2691.43 1493 2661.8 1489.97 2631.93 1483.9C2602.07 1477.37 2576.63 1469.2 2555.63 1459.4L2565.43 1427.9C2579.43 1434.43 2595.07 1440.27 2612.33 1445.4C2630.07 1450.07 2648.27 1453.8 2666.93 1456.6C2686.07 1459.4 2704.5 1460.8 2722.23 1460.8C2768.43 1460.8 2804.13 1451.47 2829.33 1432.8C2854.53 1414.13 2867.13 1388 2867.13 1354.4C2867.13 1335.27 2863.17 1319.4 2855.23 1306.8C2847.3 1294.2 2836.33 1283.7 2822.33 1275.3C2808.8 1266.9 2792.93 1259.9 2774.73 1254.3C2757 1248.23 2737.87 1242.4 2717.33 1236.8C2696.8 1231.2 2676.73 1225.13 2657.13 1218.6C2638 1211.6 2620.97 1202.97 2606.03 1192.7C2591.1 1182.43 2579.2 1169.6 2570.33 1154.2C2561.47 1138.8 2557.03 1119.9 2557.03 1097.5C2557.03 1056.43 2572.67 1024.7 2603.93 1002.3C2635.2 979.433 2678.37 968 2733.43 968C2761.9 968 2790.37 971.033 2818.83 977.1C2847.77 982.7 2872.03 990.167 2891.63 999.5L2880.43 1031C2862.23 1021.67 2839.6 1014.2 2812.53 1008.6C2785.93 1003 2759.57 1000.2 2733.43 1000.2C2688.63 1000.2 2654.1 1008.83 2629.83 1026.1C2605.57 1042.9 2593.43 1066.7 2593.43 1097.5C2593.43 1115.23 2596.93 1130.17 2603.93 1142.3C2611.4 1153.97 2621.67 1163.77 2634.73 1171.7C2647.8 1179.63 2662.97 1186.4 2680.23 1192C2697.5 1197.6 2715.93 1202.97 2735.53 1208.1C2757.47 1214.17 2778.23 1220.93 2797.83 1228.4C2817.9 1235.4 2835.87 1244.27 2851.73 1255C2867.6 1265.27 2879.97 1278.57 2888.83 1294.9C2898.17 1310.77 2902.83 1330.6 2902.83 1354.4C2902.83 1398.27 2886.73 1432.33 2854.53 1456.6C2822.8 1480.87 2778.23 1493 2720.83 1493Z" fill="black"/>
<path fill-rule="evenodd" clip-rule="evenodd" d="M2238.74 1641C2064.21 2046.83 1660.79 2331 1191 2331C561.395 2331 51 1820.6 51 1191C51 561.395 561.395 51 1191 51C1660.79 51 2064.21 335.172 2238.74 741H2294.05C2116.54 306.312 1689.54 0 1191 0C533.229 0 0 533.229 0 1191C0 1848.77 533.229 2382 1191 2382C1689.54 2382 2116.54 2075.69 2294.05 1641H2238.74Z" fill="url(#paint0_linear_642_782)"/>
<defs>
<linearGradient id="paint0_linear_642_782" x1="2292.69" y1="1191" x2="807.656" y2="1191" gradientUnits="userSpaceOnUse">
<stop stop-color="#FB0000"/>
<stop offset="1" stop-color="#FF7A00"/>
</linearGradient>
</defs>
</svg>
