<svg width="2152" height="525" viewBox="0 0 2152 525" fill="none" xmlns="http://www.w3.org/2000/svg">
<path d="M165.2 525C135.8 525 106.167 521.967 76.3 515.9C46.4333 509.367 21 501.2 2.08616e-07 491.4L9.8 459.9C23.8 466.433 39.4333 472.267 56.7 477.4C74.4333 482.067 92.6333 485.8 111.3 488.6C130.433 491.4 148.867 492.8 166.6 492.8C212.8 492.8 248.5 483.467 273.7 464.8C298.9 446.133 311.5 420 311.5 386.4C311.5 367.267 307.533 351.4 299.6 338.8C291.667 326.2 280.7 315.7 266.7 307.3C253.167 298.9 237.3 291.9 219.1 286.3C201.367 280.233 182.233 274.4 161.7 268.8C141.167 263.2 121.1 257.133 101.5 250.6C82.3667 243.6 65.3333 234.967 50.4 224.7C35.4667 214.433 23.5667 201.6 14.7 186.2C5.83334 170.8 1.4 151.9 1.4 129.5C1.4 88.4333 17.0333 56.7 48.3 34.3C79.5667 11.4333 122.733 -6.67572e-06 177.8 -6.67572e-06C206.267 -6.67572e-06 234.733 3.03332 263.2 9.09996C292.133 14.7 316.4 22.1666 336 31.5L324.8 63C306.6 53.6667 283.967 46.2 256.9 40.6C230.3 35 203.933 32.2 177.8 32.2C133 32.2 98.4667 40.8333 74.2 58.1C49.9333 74.9 37.8 98.7 37.8 129.5C37.8 147.233 41.3 162.167 48.3 174.3C55.7667 185.967 66.0333 195.767 79.1 203.7C92.1667 211.633 107.333 218.4 124.6 224C141.867 229.6 160.3 234.967 179.9 240.1C201.833 246.167 222.6 252.933 242.2 260.4C262.267 267.4 280.233 276.267 296.1 287C311.967 297.267 324.333 310.567 333.2 326.9C342.533 342.767 347.2 362.6 347.2 386.4C347.2 430.267 331.1 464.333 298.9 488.6C267.167 512.867 222.6 525 165.2 525ZM727.902 525C664.435 525 616.135 509.833 583.002 479.5C550.335 449.167 534.002 405.3 534.002 347.9V6.99999H568.302V343C568.302 393.4 581.368 430.967 607.502 455.7C634.102 480.433 674.002 492.8 727.202 492.8C780.402 492.8 820.068 480.433 846.202 455.7C872.802 430.967 886.102 393.4 886.102 343V6.99999H921.102V347.9C921.102 405.3 904.535 449.167 871.402 479.5C838.735 509.833 790.902 525 727.902 525ZM1134.11 518V6.99999H1181.01L1370.01 371H1371.41L1560.41 6.99999H1607.31V518H1573.01V57.4H1571.61L1388.21 409.5H1353.21L1169.81 57.4H1168.41V518H1134.11ZM1969.83 525C1940.43 525 1910.8 521.967 1880.93 515.9C1851.07 509.367 1825.63 501.2 1804.63 491.4L1814.43 459.9C1828.43 466.433 1844.07 472.267 1861.33 477.4C1879.07 482.067 1897.27 485.8 1915.93 488.6C1935.07 491.4 1953.5 492.8 1971.23 492.8C2017.43 492.8 2053.13 483.467 2078.33 464.8C2103.53 446.133 2116.13 420 2116.13 386.4C2116.13 367.267 2112.17 351.4 2104.23 338.8C2096.3 326.2 2085.33 315.7 2071.33 307.3C2057.8 298.9 2041.93 291.9 2023.73 286.3C2006 280.233 1986.87 274.4 1966.33 268.8C1945.8 263.2 1925.73 257.133 1906.13 250.6C1887 243.6 1869.97 234.967 1855.03 224.7C1840.1 214.433 1828.2 201.6 1819.33 186.2C1810.47 170.8 1806.03 151.9 1806.03 129.5C1806.03 88.4333 1821.67 56.7 1852.93 34.3C1884.2 11.4333 1927.37 -6.67572e-06 1982.43 -6.67572e-06C2010.9 -6.67572e-06 2039.37 3.03332 2067.83 9.09996C2096.77 14.7 2121.03 22.1666 2140.63 31.5L2129.43 63C2111.23 53.6667 2088.6 46.2 2061.53 40.6C2034.93 35 2008.57 32.2 1982.43 32.2C1937.63 32.2 1903.1 40.8333 1878.83 58.1C1854.57 74.9 1842.43 98.7 1842.43 129.5C1842.43 147.233 1845.93 162.167 1852.93 174.3C1860.4 185.967 1870.67 195.767 1883.73 203.7C1896.8 211.633 1911.97 218.4 1929.23 224C1946.5 229.6 1964.93 234.967 1984.53 240.1C2006.47 246.167 2027.23 252.933 2046.83 260.4C2066.9 267.4 2084.87 276.267 2100.73 287C2116.6 297.267 2128.97 310.567 2137.83 326.9C2147.17 342.767 2151.83 362.6 2151.83 386.4C2151.83 430.267 2135.73 464.333 2103.53 488.6C2071.8 512.867 2027.23 525 1969.83 525Z" fill="black"/>
</svg>
